<svg width="802" height="951" viewBox="0 0 802 951" fill="none" xmlns="http://www.w3.org/2000/svg">
<path fill-rule="evenodd" clip-rule="evenodd" d="M681.164 257.238V0H682.164V257.238H755.225V258.238H682.164V379.049H755.225V380.049H682.164V500.859H802V501.859H682.164V622.669H728.427V623.669H682.164L682.164 744.48H780.074V745.48H682.164V795.179H681.164V745.48H560.354L560.354 950.121H559.354L559.354 745.48H438.543L438.543 882.882H437.543L437.543 745.48H316.733L316.733 920.4H315.733L315.733 745.48H194.922V818.566H193.922V745.48H51.6476V744.48H193.922L193.922 623.669H0V622.669H193.922V501.859H73.5735V500.859H193.922V380.049H26.7983V379.049H193.922V258.238H26.7983V257.238H193.922L193.922 58.469H194.922L194.922 257.238H315.733V125.221H316.733V257.238H437.543V87.7035H438.543V257.238H559.354V154.943H560.354V257.238H681.164ZM194.922 744.48H315.733V623.669H194.922L194.922 744.48ZM316.733 744.48H437.543V623.669H316.733V744.48ZM438.543 744.48H559.354V623.669H438.543V744.48ZM560.354 744.48H681.164L681.164 623.669H560.354V744.48ZM681.164 501.859V622.669H560.354V501.859H681.164ZM559.354 501.859V622.669H438.543V501.859H559.354ZM437.543 501.859V622.669H316.733V501.859H437.543ZM315.733 501.859V622.669H194.922V501.859H315.733ZM194.922 500.859H315.733V380.049H194.922V500.859ZM316.733 500.859H437.543V380.049H316.733V500.859ZM438.543 500.859H559.354V380.049H438.543V500.859ZM560.354 500.859H681.164V380.049H560.354V500.859ZM681.164 258.238V379.049H560.354V258.238H681.164ZM559.354 258.238V379.049H438.543V258.238H559.354ZM437.543 258.238V379.049H316.733V258.238H437.543ZM315.733 258.238V379.049H194.922V258.238H315.733Z" fill="white" fill-opacity="0.3"/>
</svg>
