<svg width="28" height="28" viewBox="0 0 28 28" fill="none" xmlns="http://www.w3.org/2000/svg">
<path fill-rule="evenodd" clip-rule="evenodd" d="M2.33337 14C2.33337 7.5565 7.55654 2.33333 14 2.33333C20.4435 2.33333 25.6667 7.5565 25.6667 14C25.6667 20.4435 20.4435 25.6667 14 25.6667C7.55654 25.6667 2.33337 20.4435 2.33337 14ZM14 4.66666C11.5247 4.66666 9.15072 5.64999 7.40038 7.40033C5.65004 9.15067 4.66671 11.5246 4.66671 14C4.66671 16.4753 5.65004 18.8493 7.40038 20.5997C9.15072 22.35 11.5247 23.3333 14 23.3333C16.4754 23.3333 18.8494 22.35 20.5997 20.5997C22.35 18.8493 23.3334 16.4753 23.3334 14C23.3334 11.5246 22.35 9.15067 20.5997 7.40033C18.8494 5.64999 16.4754 4.66666 14 4.66666Z" fill="white"/>
<path fill-rule="evenodd" clip-rule="evenodd" d="M15.1667 8.16667C15.1667 7.85725 15.0437 7.5605 14.825 7.34171C14.6062 7.12292 14.3094 7 14 7C13.6906 7 13.3938 7.12292 13.175 7.34171C12.9562 7.5605 12.8333 7.85725 12.8333 8.16667V12.8333H8.16667C7.85725 12.8333 7.5605 12.9562 7.34171 13.175C7.12292 13.3938 7 13.6906 7 14C7 14.3094 7.12292 14.6062 7.34171 14.825C7.5605 15.0437 7.85725 15.1667 8.16667 15.1667H12.8333V19.8333C12.8333 20.1428 12.9562 20.4395 13.175 20.6583C13.3938 20.8771 13.6906 21 14 21C14.3094 21 14.6062 20.8771 14.825 20.6583C15.0437 20.4395 15.1667 20.1428 15.1667 19.8333V15.1667H19.8333C20.1428 15.1667 20.4395 15.0437 20.6583 14.825C20.8771 14.6062 21 14.3094 21 14C21 13.6906 20.8771 13.3938 20.6583 13.175C20.4395 12.9562 20.1428 12.8333 19.8333 12.8333H15.1667V8.16667Z" fill="white"/>
</svg>
