<svg width="28" height="28" viewBox="0 0 28 28" fill="none" xmlns="http://www.w3.org/2000/svg">
<path d="M21 11.6667C21 11.3573 20.8771 11.0606 20.6583 10.8418C20.4395 10.623 20.1428 10.5001 19.8333 10.5001H6.31167L8.995 7.82839C9.21469 7.6087 9.33811 7.31074 9.33811 7.00005C9.33811 6.68937 9.21469 6.39141 8.995 6.17172C8.77531 5.95203 8.47735 5.82861 8.16667 5.82861C7.85598 5.82861 7.55802 5.95203 7.33833 6.17172L2.67167 10.8384C2.50978 11.0024 2.40012 11.2108 2.35652 11.4371C2.31291 11.6634 2.33732 11.8976 2.42667 12.1101C2.51419 12.3231 2.66282 12.5055 2.85383 12.6342C3.04483 12.7629 3.26967 12.8322 3.5 12.8334H19.8333C20.1428 12.8334 20.4395 12.7105 20.6583 12.4917C20.8771 12.2729 21 11.9761 21 11.6667ZM25.5733 15.8901C25.4858 15.677 25.3372 15.4946 25.1462 15.3659C24.9552 15.2372 24.7303 15.1679 24.5 15.1667H8.16667C7.85725 15.1667 7.5605 15.2896 7.34171 15.5084C7.12292 15.7272 7 16.024 7 16.3334C7 16.6428 7.12292 16.9396 7.34171 17.1583C7.5605 17.3771 7.85725 17.5001 8.16667 17.5001H21.6883L19.005 20.1717C18.8957 20.2802 18.8089 20.4092 18.7496 20.5514C18.6904 20.6936 18.6599 20.846 18.6599 21.0001C18.6599 21.1541 18.6904 21.3066 18.7496 21.4487C18.8089 21.5909 18.8957 21.7199 19.005 21.8284C19.1135 21.9377 19.2425 22.0245 19.3847 22.0838C19.5268 22.143 19.6793 22.1735 19.8333 22.1735C19.9873 22.1735 20.1398 22.143 20.282 22.0838C20.4242 22.0245 20.5532 21.9377 20.6617 21.8284L25.3283 17.1617C25.4902 16.9977 25.5999 16.7893 25.6435 16.563C25.6871 16.3367 25.6627 16.1025 25.5733 15.8901Z" fill="white"/>
</svg>
